/* XPM */
static char *b445330cda4f465a85550dfb0a53e827Kb6tMIlh5kqHBrHp[] = {
/* columns rows colors chars-per-pixel */
"32 32 7 1 ",
"  c None",
". c #2C1E31",
"X c #403022",
"o c #4D3533",
"O c #6E4C30",
"+ c #EC273F",
"@ c #AC2847",
/* pixels */
"                                ",
"                                ",
"                                ",
"                                ",
"                                ",
"           o  o                 ",
"           o  o                 ",
"           OOOO                 ",
"         oOOO.O                 ",
"         OOOOOO                 ",
"          @@+OO                 ",
"          oo+OO                 ",
"            OOOO                ",
"            OOOO                ",
"           OOOOO                ",
"          OOOOOOO   O           ",
"          OOOOOOO    O          ",
"          OOOOOOOO   O          ",
"           oOOOOOO   O          ",
"           OoOOOOOO  O          ",
"           OoOOOOOO  O          ",
"           OoOOOOOOOO           ",
"           OoOOoOOOOO           ",
"          OOoOOooOOO            ",
"          XXOOXXOOXX            ",
"            XXXXXX              ",
"                                ",
"                                ",
"                                ",
"                                ",
"                                ",
"                                "
};
