/* XPM */
static char *df217da2ea184e85dc135969cb4f53a6xJV2OEmXSQI9AMdL[] = {
/* columns rows colors chars-per-pixel */
"32 32 4 1 ",
"  c None",
". c #EECD11",
"X c #F0CE11",
"o c #F0CF18",
/* pixels */
"                                ",
"                                ",
"        XXXXXXXXXXXXXXXX        ",
"        XXXXXXXXXXXXXXXX        ",
"        XXXXXXXXXXXXXXXX        ",
"        XXXXXXXXXXXXXXXX        ",
"         XXXXXXXXXXXXXX         ",
"   XXXXXXXXXXX    XXXXXXXXXXX   ",
"   XXXXXXXXXX      XXXXXXXXXX   ",
"   XXXXXXXX.        .XXXXXXXX   ",
"   XXX   XX.        .XX   XXX   ",
"   XXXoooXX.        .XXoooXXX   ",
"    oXXXXXX.        .XXXXXXo    ",
"     XXXXXXXX      XXXXXXXX     ",
"          XXXX    XXXX          ",
"           XXXXXXXXXX           ",
"             XXXXXX             ",
"              XXXX              ",
"              XXXX              ",
"              XXXX              ",
"              XXXX              ",
"              XXXX              ",
"              XXXX              ",
"           XXXXXXXXXX           ",
"           XXXXXXXXXX           ",
"         XXXXXXXXXXXXXX         ",
"       XXXXXXXXXXXXXXXXXX       ",
"       XXXXXXXXXXXXXXXXXX       ",
"       XXXXXXXXXXXXXXXXXX       ",
"                                ",
"                                ",
"                                "
};
