/* XPM */
static char *_4e52e2b07ac46579c9d7294ab551192SdCrMvUGBK49YY95[] = {
/* columns rows colors chars-per-pixel */
"32 32 12 1 ",
"  c None",
". c #5B3919",
"X c #7D6A16",
"o c gray46",
"O c #CF2424",
"+ c #975F29",
"@ c #A98D17",
"# c #D4B21F",
"$ c #939393",
"% c #BEB5A7",
"& c #EEC39A",
"* c #DCD5CB",
/* pixels */
"             OOOO               ",
"            OOOO                ",
"            OO@@                ",
"           OO@###               ",
"           OO#@@@@              ",
"           O @X#X               ",
"            @@#X#@              ",
"             #X#X               ",
"             &##&               ",
"            @&&&&+    #         ",
"           ##@&&+&& ###         ",
"          ##@@++####OO#         ",
"          @@*&&&#OOOOO#         ",
"          #@%&&&#OOOO##         ",
"         @@%&&&&#OO#OO#         ",
"         ## &&&&#O#OOO#         ",
"         @@ ++++#O#OOO#         ",
"          #@++++#OOooo$         ",
"          @@OOOOooo$$$#         ",
"           &&.oo$$$#o##         ",
"          .&&.$$#O#OOO#         ",
"          .OOOOO#O#OO##         ",
"           &&OOO#OO#OO#         ",
"           &&   #OOOOO#         ",
"          &&    #OOOOO#         ",
"          &&    #OOO##          ",
"          ++    ####            ",
"          &        @            ",
"          +        @            ",
"         +&        *+           ",
"        +++        +++          ",
"                                "
};
