/* XPM */
static char *f611bcc82a7b4cf6e7d7a869db10d23aWhIqG6niyPHPjwxB[] = {
/* columns rows colors chars-per-pixel */
"32 32 4 1 ",
"  c #85578E",
". c #2F2E2F",
"X c #564064",
"o c #3E2F5A",
/* pixels */
"  ...              ...          ",
"   .   X        X   .      X    ",
"X  .  XXXX XXX XXX  .  XX XXXX X",
"XX . XXoXXXXXXoXXXX . XXXXXoXXoX",
"XXo.oXXXoXXooXXoXXXo.oXXXXooXXXo",
"Xoo.ooXXXXooXXXooXoo.ooXoooXXoXX",
"ooo.oooXoooooXoooooo.ooooooooooX",
"oo...oooooooooooooo...oooooooooo",
"................................",
"              ...               ",
"       X       .      X   X     ",
" XX XXXXXX XX  .  XX XXX XXX    ",
"oXXXXXXoXoXXXo . oXXXXXXoXXXX X ",
"ooXXXXooXXXXooo.oooXooXXXXXoXXXX",
"oooXooooooXoooo.oooooooooXoooooo",
"oooooooooooooo...ooooooooooooooo",
"................................",
"      ...            ...        ",
" X     .      X       .      X  ",
"XXXXXX . XX XXXX XXX  .  XX XXX ",
"XXXXoXX.XXXXXXoXXXXoo . ooXXXXXX",
"ooooooo.oooooooooooooo.ooooooXXo",
"oooooo...oooooooooooo...oooooooo",
"................................",
".           ...                 ",
"      XX     .          XX      ",
"  X XXXXX X  .  XX XXX XXXX X  X",
" oXXXXooXXXo . oXXXXoXXXooXXXXXX",
"oooXXooXXXooo.oooXXoooXXXXXXoXoX",
"ooooooooooooo.oooooooooooXXooooo",
".ooooooooooo...ooooooooooooooooo",
"................................"
};
